<?xml version="1.0" encoding="UTF-8" standalone="no"?>
<svg width="163px" height="46px" viewBox="0 0 163 46" version="1.1" xmlns="http://www.w3.org/2000/svg" xmlns:xlink="http://www.w3.org/1999/xlink">
    <!-- Generator: Sketch 41.1 (35376) - http://www.bohemiancoding.com/sketch -->
    <title>logo-beacon-footer</title>
    <desc>Created with Sketch.</desc>
    <defs>
        <polygon id="path-1" points="0 45.6549108 162.554991 45.6549108 162.554991 9.26136364e-05 0 9.26136364e-05"></polygon>
    </defs>
    <g id="Assets" stroke="none" stroke-width="1" fill="none" fill-rule="evenodd">
        <g id="logo-beacon-footer">
            <g id="Page-1">
                <path d="M9.64909062,25.6285085 L5.3925679,25.6285085 L5.3925679,18.5759801 L9.64909062,18.5759801 C11.6101844,18.5759801 13.237869,20.1615256 13.237869,22.1226193 C13.237869,24.0841761 11.6101844,25.6285085 9.64909062,25.6285085 Z M5.26753949,6.26577557 L7.81256222,6.26577557 C9.44024687,6.26577557 11.1924969,7.51744886 11.1924969,9.56189489 C11.1924969,11.606804 9.44024687,12.9422926 7.81256222,12.9422926 L5.26753949,12.9422926 L5.26753949,6.26577557 Z M15.1156105,14.7366818 C16.0755509,13.359517 16.6178037,11.7318324 16.6178037,9.93790625 C16.6178037,5.22201989 12.7785054,1.38318466 8.0630821,1.38318466 L0.0927525568,1.38318466 L0.0927525568,30.5939886 L9.7324429,30.5939886 C14.6150338,30.5939886 18.5788974,26.6713381 18.5788974,21.7475341 C18.5788974,18.9098523 17.2434088,16.3639034 15.1156105,14.7366818 Z" id="Fill-1" fill="#048689"></path>
                <mask id="mask-2" fill="white">
                    <use xlink:href="#path-1"></use>
                </mask>
                <g id="Clip-4"></g>
                <polygon id="Fill-3" fill="#048689" mask="url(#mask-2)" points="23.5859148 30.5940813 42.9486477 30.5940813 42.9486477 24.7520131 23.5859148 24.7520131"></polygon>
                <polygon id="Fill-5" fill="#048689" mask="url(#mask-2)" points="23.5859148 7.18366932 43.0741392 7.18366932 43.0741392 1.34160114 23.5859148 1.34160114"></polygon>
                <polygon id="Fill-6" fill="#048689" mask="url(#mask-2)" points="23.5859148 18.4505812 39.7354176 18.4505812 39.7354176 12.6085131 23.5859148 12.6085131"></polygon>
                <polygon id="Fill-7" fill="#048689" mask="url(#mask-2)" points="61.3099494 1.34164744 46.412583 30.5941276 52.9640716 30.5941276 62.0193699 12.8174031 70.3652477 30.5941276 76.8333841 30.5941276 63.0209864 1.34164744"></polygon>
                <path d="M83.7601432,16.0302628 C83.7601432,8.18542472 92.3148648,4.76335085 97.9902284,8.43548153 L101.745711,4.09560653 C99.1580864,2.09283665 95.9036432,0.882839489 92.3986801,0.882839489 C84.0523392,0.882839489 77.2503307,7.68438494 77.2503307,16.0302628 C77.2503307,24.3761406 84.0523392,31.1781491 92.3986801,31.1781491 C96.0708108,31.1781491 99.4507455,29.8431236 102.079584,27.6731861 L98.3241006,23.3745241 C92.8154415,27.5476946 83.7601432,24.2511122 83.7601432,16.0302628" id="Fill-8" fill="#048689" mask="url(#mask-2)"></path>
                <polygon id="Fill-9" fill="#048689" mask="url(#mask-2)" points="156.620124 1.34164744 156.620124 17.699531 140.470622 1.34164744 138.634556 1.34164744 138.634556 30.5941276 144.476624 30.5941276 144.476624 13.5263605 160.918323 30.5941276 162.462193 30.5941276 162.462193 1.34164744"></polygon>
                <polygon id="Fill-10" fill="#545656" mask="url(#mask-2)" points="22.271542 39.9770466 23.6612097 39.9770466 23.6612097 45.6005466 24.2956131 45.6005466 24.2956131 39.9770466 25.6899114 39.9770466 25.6899114 39.3722795 22.271542 39.3722795"></polygon>
                <path d="M26.9302858,42.0974821 L26.9302858,39.9807974 L28.0263682,39.9807974 C28.4547063,39.9807974 28.7598682,40.018306 28.941854,40.0923969 C29.1238398,40.1664878 29.2715585,40.2892009 29.3850102,40.4596099 C29.4979989,40.6309452 29.5549563,40.819877 29.5549563,41.0268685 C29.5549563,41.2421952 29.4998511,41.4371469 29.3891778,41.6103344 C29.2785045,41.7839849 29.1233767,41.9104026 28.9228682,41.988198 C28.7228227,42.0664565 28.4158085,42.1058173 28.0013625,42.1058173 L26.9302858,42.0974821 Z M29.2798937,42.5026668 C29.5781097,42.3697662 29.8073284,42.1762037 29.9666239,41.9215162 C30.1259193,41.6663656 30.2060301,41.3681497 30.2060301,41.0268685 C30.2060301,40.6207577 30.0898,40.2785503 29.8573398,40.0002463 C29.6253426,39.7214793 29.3238852,39.5399565 28.9548199,39.4561412 C28.7080045,39.3996469 28.2393795,39.3723259 27.5475557,39.3723259 L26.3088483,39.3723259 L26.3088483,45.6001298 L26.9302858,45.6001298 L26.9302858,42.7022491 L27.7406551,42.7022491 L29.5253199,45.6001298 L30.2898455,45.6001298 L28.5051807,42.7022491 C28.7237489,42.7022491 28.9816778,42.6360304 29.2798937,42.5026668 L29.2798937,42.5026668 Z" id="Fill-11" fill="#545656" mask="url(#mask-2)"></path>
                <path d="M32.6263949,42.9336443 L33.7016392,40.6743347 L34.75975,42.9336443 L32.6263949,42.9336443 Z M33.6261591,39.3550534 L30.6819716,45.5833205 L31.3793523,45.5833205 L32.349017,43.5300761 L35.0371278,43.5300761 L36.0151278,45.5833205 L36.6787045,45.5833205 L33.7771193,39.3550534 L33.6261591,39.3550534 Z" id="Fill-12" fill="#545656" mask="url(#mask-2)"></path>
                <polygon id="Fill-13" fill="#545656" mask="url(#mask-2)" points="41.6189011 44.1388256 37.4781455 39.3724648 37.3438557 39.3724648 37.3438557 45.6002687 37.9902989 45.6002687 37.9902989 40.8922545 42.0893784 45.6002687 42.2320034 45.6002687 42.2320034 39.3724648 41.6189011 39.3724648"></polygon>
                <path d="M45.0387986,42.1311935 C44.5826764,41.795469 44.3136338,41.5866253 44.2325969,41.5055884 C44.0811736,41.3597219 43.9774463,41.2226537 43.9214151,41.0939207 C43.8658469,40.9647247 43.8380628,40.8332134 43.8380628,40.6989236 C43.8380628,40.477577 43.9177105,40.2909605 44.077006,40.1386111 C44.2367645,39.9862616 44.4409776,39.9093923 44.6905713,39.9093923 C44.8864491,39.9093923 45.0670457,39.9598668 45.231898,40.0585003 C45.3972134,40.1580599 45.5963327,40.3618099 45.8283298,40.6697503 L46.3363156,40.287719 C46.0510656,39.8982787 45.7810969,39.6306253 45.5259463,39.4829065 C45.2712588,39.3361139 44.9985116,39.2629491 44.7072418,39.2629491 C44.430327,39.2629491 44.1728611,39.3277787 43.9362332,39.4583639 C43.6996054,39.588023 43.5171565,39.7639889 43.3884236,39.9853355 C43.2596906,40.2066821 43.1953241,40.4530344 43.1953241,40.7239293 C43.1953241,41.068452 43.3055344,41.3865798 43.526881,41.6778497 C43.6500571,41.8538156 43.9718895,42.1381395 44.4928412,42.5303582 C45.0110145,42.8188497 45.3680401,43.1013213 45.5634548,43.3786991 C45.7037645,43.5801338 45.7736878,43.7843469 45.7736878,43.9918014 C45.7736878,44.1765656 45.7264548,44.3502162 45.6310628,44.5122901 C45.5356707,44.674827 45.3958241,44.8049491 45.2110599,44.9026565 C45.0262957,45.0012901 44.8290287,45.0499122 44.6187957,45.0499122 C44.1321111,45.0499122 43.7019207,44.7067787 43.3296139,44.0209747 L42.8007901,44.3400287 C43.058256,44.8132844 43.3407276,45.1508611 43.649131,45.3522957 C43.9566082,45.5537304 44.301131,45.6546793 44.681773,45.6546793 C45.1721622,45.6546793 45.5884605,45.4884378 45.931594,45.1545656 C46.2742645,44.8216196 46.4460628,44.4284747 46.4460628,43.9746679 C46.4460628,43.6639491 46.345577,43.3786991 46.1455315,43.1179918 C45.9454861,42.8577474 45.5764207,42.528969 45.0387986,42.1311935" id="Fill-14" fill="#545656" mask="url(#mask-2)"></path>
                <polygon id="Fill-15" fill="#545656" mask="url(#mask-2)" points="47.3626136 45.6002688 47.9840511 45.6002688 47.9840511 39.3720017 47.3626136 39.3720017"></polygon>
                <polygon id="Fill-16" fill="#545656" mask="url(#mask-2)" points="48.489629 39.9770466 49.8792966 39.9770466 49.8792966 45.6005466 50.5137 45.6005466 50.5137 39.9770466 51.9079983 39.9770466 51.9079983 39.3722795 48.489629 39.3722795"></polygon>
                <polygon id="Fill-17" fill="#545656" mask="url(#mask-2)" points="52.4049631 45.6002688 53.0264006 45.6002688 53.0264006 39.3720017 52.4049631 39.3720017"></polygon>
                <path d="M59.4447571,43.7374844 C59.2150753,44.142206 58.8946321,44.4621861 58.4829645,44.6974247 C58.0712969,44.9326634 57.6244361,45.0498196 57.1433082,45.0498196 C56.4209219,45.0498196 55.8045781,44.8206009 55.2933509,44.3617003 C54.7825866,43.9018736 54.526973,43.3026634 54.526973,42.5640696 C54.526973,42.0653452 54.6418139,41.6124645 54.8714957,41.2054276 C55.1007145,40.7979276 55.4220838,40.474706 55.8351406,40.2352997 C56.2481974,39.9954304 56.6839446,39.8759588 57.1433082,39.8759588 C57.6137855,39.8759588 58.0574048,39.9954304 58.4746293,40.2352997 C58.8918537,40.474706 59.2150753,40.7946861 59.4447571,41.1943139 C59.6744389,41.595331 59.7892798,42.0417287 59.7892798,42.5339702 C59.7892798,42.9317457 59.6744389,43.3327628 59.4447571,43.7374844 M57.1183026,39.2628565 C56.5357628,39.2628565 55.993973,39.4077969 55.4929332,39.6972145 C54.9914304,39.9870952 54.5968963,40.3885753 54.3088679,40.9011918 C54.0199134,41.4128821 53.8758991,41.9676378 53.8758991,42.5640696 C53.8758991,43.361473 54.1935639,44.0759872 54.8293565,44.7076122 C55.4646861,45.3392372 56.2444929,45.6550497 57.1683139,45.6550497 C58.0782429,45.6550497 58.8497145,45.3623906 59.4822656,44.7775355 C60.1152798,44.1922173 60.4315554,43.4443622 60.4315554,42.5339702 C60.4315554,41.6133906 60.1143537,40.8377514 59.4804134,40.2075156 C58.8460099,39.5777429 58.058794,39.2628565 57.1183026,39.2628565" id="Fill-18" fill="#545656" mask="url(#mask-2)"></path>
                <polygon id="Fill-19" fill="#545656" mask="url(#mask-2)" points="65.6489446 44.1388256 61.5081889 39.3724648 61.3738991 39.3724648 61.3738991 45.6002687 62.0203423 45.6002687 62.0203423 40.8922545 66.1194219 45.6002687 66.2620469 45.6002687 66.2620469 39.3724648 65.6489446 39.3724648"></polygon>
                <path d="M71.7872838,44.9324318 C71.5747355,45.0245824 71.3575565,45.0708892 71.1362099,45.0708892 C70.8481815,45.0708892 70.6027554,44.9796648 70.4013207,44.798142 C70.1998861,44.6156932 70.0989372,44.4059233 70.0989372,44.1679063 C70.0989372,43.96925 70.1809003,43.751608 70.3448264,43.514517 C70.5082895,43.2783523 70.8551276,42.9611506 71.3839514,42.5638381 C71.591406,42.8046335 71.7803378,43.0125511 71.9512099,43.1894432 L72.963477,44.2355142 C72.5096702,44.5573466 72.1179145,44.7893438 71.7872838,44.9324318 M70.871798,40.9509716 C70.8157668,40.8504858 70.7879827,40.7453693 70.7879827,40.6365483 C70.7879827,40.4879034 70.857906,40.3596335 70.9977526,40.2522017 C71.1375991,40.1443068 71.3168065,40.0901278 71.5358378,40.0901278 C71.7650565,40.0901278 71.9498207,40.1424545 72.0896673,40.247571 C72.229977,40.3526875 72.2999003,40.4767898 72.2999003,40.6198778 C72.2999003,40.7453693 72.2466474,40.8879943 72.1401418,41.0477528 C71.9891815,41.2746563 71.7622781,41.5057273 71.4598946,41.7405028 C71.2079855,41.4547898 71.0116446,41.191767 70.871798,40.9509716 M73.8831304,44.268392 C74.0984571,44.0896477 74.342031,43.880804 74.613852,43.6427869 L74.1896815,43.1936108 C73.9993605,43.3672614 73.7469884,43.5844403 73.4334912,43.8442216 L72.787048,43.1936108 L71.8460935,42.2026449 C72.2772099,41.8358949 72.5657014,41.5349006 72.7115679,41.2996619 C72.8569713,41.0644233 72.929673,40.8435398 72.929673,40.6365483 C72.929673,40.4369659 72.8736418,40.2498864 72.7615793,40.0729943 C72.6499798,39.8970284 72.4865168,39.7571818 72.2725793,39.6534545 C72.0581787,39.5497273 71.8210878,39.4983267 71.5603804,39.4983267 C71.1491759,39.4983267 70.8046531,39.615946 70.5277384,39.8507216 C70.2864798,40.0553977 70.1665452,40.3114744 70.1665452,40.6198778 C70.1665452,40.7986222 70.2151673,40.9866278 70.3133378,41.1820426 C70.4110452,41.3779205 70.6310026,41.6835455 70.9727469,42.0975284 C70.3679798,42.5735625 69.9674259,42.9667074 69.771548,43.2778892 C69.5756702,43.588608 69.4774997,43.9007159 69.4774997,44.2142131 C69.4774997,44.6231023 69.6233662,44.9653097 69.9146361,45.2408352 C70.2054429,45.5172869 70.5907156,45.6548182 71.0690651,45.6548182 C71.4302582,45.6548182 71.7733918,45.5909148 72.0980026,45.463571 C72.4230764,45.3366903 72.8528037,45.0699631 73.3876474,44.6633892 L74.1896815,45.4992273 L75.0546929,45.4992273 C74.9009543,45.3172415 74.7161901,45.1185852 74.4999372,44.9027955 C74.2285793,44.6314375 74.022977,44.4202784 73.8831304,44.268392" id="Fill-20" fill="#545656" mask="url(#mask-2)"></path>
                <polygon id="Fill-21" fill="#545656" mask="url(#mask-2)" points="78.3620648 39.3552849 77.7364597 39.3552849 77.7364597 45.583552 80.7565903 45.583552 80.7565903 44.9824895 78.3620648 44.9824895"></polygon>
                <polygon id="Fill-22" fill="#545656" mask="url(#mask-2)" points="81.3453352 45.6002688 81.9672358 45.6002688 81.9672358 39.3720017 81.3453352 39.3720017"></polygon>
                <polygon id="Fill-23" fill="#545656" mask="url(#mask-2)" points="83.0856844 45.6003614 83.7075849 45.6003614 83.7075849 42.5468898 85.3741673 42.5468898 85.3741673 41.9337875 83.7075849 41.9337875 83.7075849 39.9856597 86.5170196 39.9856597 86.5170196 39.3720943 83.0856844 39.3720943"></polygon>
                <polygon id="Fill-24" fill="#545656" mask="url(#mask-2)" points="87.3873563 45.6003614 90.9316801 45.6003614 90.9316801 44.9826284 88.0083307 44.9826284 88.0083307 42.5385545 89.8059614 42.5385545 89.8059614 41.9337875 88.0083307 41.9337875 88.0083307 39.9856597 90.9566858 39.9856597 90.9566858 39.3720943 87.3873563 39.3720943"></polygon>
                <path d="M95.5959807,40.2205741 C96.0187619,39.9825571 96.4790517,39.8635486 96.9777761,39.8635486 C97.4311199,39.8635486 97.8474182,39.9538469 98.226671,40.1339804 C98.6063869,40.314577 98.9305347,40.5813043 99.1991142,40.9341622 L99.6945972,40.5650969 C99.3954551,40.1474094 99.0111085,39.8237247 98.5415574,39.5926537 C98.0733955,39.3615827 97.5468869,39.2462787 96.9648102,39.2462787 C96.0044068,39.2462787 95.204225,39.5583866 94.5647278,40.1821395 C93.9252307,40.8068185 93.6052506,41.5741224 93.6052506,42.4840514 C93.6052506,43.2592276 93.8682733,43.9538298 94.3947818,44.5669321 C95.0250176,45.2920969 95.8853983,45.6546793 96.9777761,45.6546793 C97.5487392,45.6546793 98.0664494,45.5467844 98.5309068,45.3314577 C98.9958273,45.116131 99.3838784,44.810506 99.6945972,44.4159719 L99.1991142,44.0418128 C98.613796,44.7257645 97.8844636,45.0670457 97.011117,45.0670457 C96.2188074,45.0670457 95.5621767,44.8350486 95.041225,44.3715173 C94.5207364,43.9084491 94.260492,43.2976622 94.260492,42.5386935 C94.260492,42.0344122 94.3771852,41.5815315 94.6110347,41.1800514 C94.8448841,40.7781082 95.1727364,40.4585912 95.5959807,40.2205741" id="Fill-25" fill="#545656" mask="url(#mask-2)"></path>
                <path d="M105.932264,43.7374844 C105.702583,44.142206 105.382603,44.4621861 104.970472,44.6974247 C104.558804,44.9326634 104.11287,45.0498196 103.631279,45.0498196 C102.908892,45.0498196 102.292086,44.8206009 101.781321,44.3617003 C101.270094,43.9018736 101.01448,43.3026634 101.01448,42.5640696 C101.01448,42.0653452 101.129321,41.6124645 101.359466,41.2054276 C101.588222,40.7979276 101.910054,40.474706 102.323111,40.2352997 C102.736168,39.9954304 103.172378,39.8759588 103.631279,39.8759588 C104.101293,39.8759588 104.545375,39.9954304 104.962137,40.2352997 C105.379824,40.474706 105.702583,40.7946861 105.932264,41.1943139 C106.161946,41.595331 106.276787,42.0417287 106.276787,42.5339702 C106.276787,42.9317457 106.161946,43.3327628 105.932264,43.7374844 M103.60581,39.2628565 C103.023733,39.2628565 102.48148,39.4077969 101.980441,39.6972145 C101.478938,39.9870952 101.084867,40.3885753 100.796375,40.9011918 C100.508347,41.4128821 100.363407,41.9676378 100.363407,42.5640696 C100.363407,43.361473 100.681534,44.0759872 101.317327,44.7076122 C101.952193,45.3392372 102.732,45.6550497 103.656284,45.6550497 C104.566213,45.6550497 105.337685,45.3623906 105.970699,44.7775355 C106.602787,44.1922173 106.919526,43.4443622 106.919526,42.5339702 C106.919526,41.6133906 106.602324,40.8377514 105.968384,40.2075156 C105.33398,39.5777429 104.546301,39.2628565 103.60581,39.2628565" id="Fill-26" fill="#545656" mask="url(#mask-2)"></path>
                <path d="M109.256261,42.9336443 L110.331505,40.6743347 L111.389616,42.9336443 L109.256261,42.9336443 Z M110.255562,39.3550534 L107.311837,45.5833205 L108.008755,45.5833205 L108.978883,43.5300761 L111.66653,43.5300761 L112.645457,45.5833205 L113.30857,45.5833205 L110.406522,39.3550534 L110.255562,39.3550534 Z" id="Fill-27" fill="#545656" mask="url(#mask-2)"></path>
                <path d="M115.674524,40.2205741 C116.096843,39.9825571 116.557595,39.8635486 117.05632,39.8635486 C117.509664,39.8635486 117.925962,39.9538469 118.305215,40.1339804 C118.684931,40.314577 119.009078,40.5813043 119.277195,40.9341622 L119.773141,40.5650969 C119.473999,40.1474094 119.089652,39.8237247 118.620101,39.5926537 C118.151476,39.3615827 117.625431,39.2462787 117.043354,39.2462787 C116.082951,39.2462787 115.282769,39.5583866 114.642809,40.1821395 C114.003311,40.8068185 113.683794,41.5741224 113.683794,42.4840514 C113.683794,43.2592276 113.946817,43.9538298 114.473326,44.5669321 C115.103561,45.2920969 115.963942,45.6546793 117.05632,45.6546793 C117.627283,45.6546793 118.14453,45.5467844 118.609451,45.3314577 C119.074371,45.116131 119.462422,44.810506 119.773141,44.4159719 L119.277195,44.0418128 C118.69234,44.7257645 117.963007,45.0670457 117.089198,45.0670457 C116.297351,45.0670457 115.64072,44.8350486 115.119769,44.3715173 C114.59928,43.9084491 114.338573,43.2976622 114.338573,42.5386935 C114.338573,42.0344122 114.455729,41.5815315 114.689115,41.1800514 C114.923428,40.7781082 115.25128,40.4585912 115.674524,40.2205741" id="Fill-28" fill="#545656" mask="url(#mask-2)"></path>
                <polygon id="Fill-29" fill="#545656" mask="url(#mask-2)" points="124.499076 41.9844472 121.327985 41.9844472 121.327985 39.3722795 120.70238 39.3722795 120.70238 45.6005466 121.327985 45.6005466 121.327985 42.5970864 124.499076 42.5970864 124.499076 45.6005466 125.120513 45.6005466 125.120513 39.3722795 124.499076 39.3722795"></polygon>
                <polygon id="Fill-30" fill="#545656" mask="url(#mask-2)" points="126.230534 45.6002688 126.852435 45.6002688 126.852435 39.3720017 126.230534 39.3720017"></polygon>
                <polygon id="Fill-31" fill="#545656" mask="url(#mask-2)" points="132.250698 44.1388256 128.10948 39.3724648 127.975653 39.3724648 127.975653 45.6002687 128.622096 45.6002687 128.622096 40.8922545 132.721176 45.6002687 132.863338 45.6002687 132.863338 39.3724648 132.250698 39.3724648"></polygon>
                <path d="M137.76547,42.5133173 L137.76547,43.1139168 L139.752032,43.1139168 C139.667291,43.6881213 139.403805,44.1553571 138.960649,44.5170134 C138.516566,44.8777435 137.97524,45.0588031 137.337132,45.0588031 C136.810623,45.0588031 136.325791,44.9388685 135.881709,44.6989991 C135.438089,44.460056 135.090325,44.1298884 134.837953,43.7084963 C134.586044,43.2866412 134.460089,42.8407065 134.460089,42.3702293 C134.460089,42.0007009 134.581876,41.6121866 134.825913,41.2028344 C135.069487,40.7944082 135.411694,40.4693344 135.852535,40.2285389 C136.293376,39.9882065 136.75737,39.8678088 137.244518,39.8678088 C137.639515,39.8678088 138.043311,39.9557918 138.456368,40.1322207 C138.868961,40.3086497 139.24914,40.5675048 139.595978,40.9092491 L140.079422,40.4512747 C139.634413,40.0317349 139.179217,39.7256469 138.714297,39.5334736 C138.249839,39.3417634 137.754356,39.2463713 137.227385,39.2463713 C136.575385,39.2463713 135.99053,39.3903855 135.471893,39.678877 C134.954646,39.9669054 134.547609,40.3424537 134.252635,40.8041327 C133.957197,41.2658116 133.809015,41.7927832 133.809015,42.3831952 C133.809015,43.1755048 134.068334,43.8742747 134.586044,44.4790418 C135.258419,45.2625531 136.167885,45.6547719 137.315831,45.6547719 C138.267899,45.6547719 139.025478,45.3718372 139.589959,44.806431 C140.154439,44.2410247 140.438763,43.4764991 140.444782,42.5133173 L137.76547,42.5133173 Z" id="Fill-32" fill="#545656" mask="url(#mask-2)"></path>
                <polygon id="Fill-33" fill="#048689" mask="url(#mask-2)" points="-0.000463068182 43.4479278 18.4162216 43.4479278 18.4162216 42.5417034 -0.000463068182 42.5417034"></polygon>
                <polygon id="Fill-34" fill="#048689" mask="url(#mask-2)" points="144.13877 43.4479278 162.554991 43.4479278 162.554991 42.5417034 144.13877 42.5417034"></polygon>
                <path d="M114.540609,29.518698 L115.301893,12.2916355 L114.232206,12.2916355 L114.232206,9.85589688 L116.188669,9.85589688 C116.189132,9.82440824 116.190058,9.79384574 116.190058,9.76189403 C116.190058,7.84757017 115.74968,6.29582869 115.206038,6.29582869 C115.17918,6.29582869 115.152786,6.30231165 115.126854,6.30972074 C115.455632,4.71028324 116.827703,3.49334006 118.501695,3.39655881 L118.501695,1.37711847 L118.92957,1.37711847 L118.92957,3.39655881 C120.599393,3.49287699 121.969149,4.70518949 122.302095,6.29999631 C121.960351,6.33009574 121.662598,6.97329744 121.493115,7.92814403 L125.737598,7.33032301 L131.199487,6.56116676 C128.485908,2.60008153 123.930243,-4.63068182e-05 118.76657,-4.63068182e-05 C110.448013,-4.63068182e-05 103.704351,6.74361563 103.704351,15.0621724 C103.704351,21.9128031 108.279928,27.691431 114.540609,29.518698" id="Fill-35" fill="#F89D1F" mask="url(#mask-2)"></path>
                <path d="M119.953182,6.31916733 C119.564668,6.31916733 119.229406,7.11610767 119.069648,8.26961051 L120.79967,8.02603665 C120.628335,7.00543437 120.313912,6.31916733 119.953182,6.31916733" id="Fill-36" fill="#F89D1F" mask="url(#mask-2)"></path>
                <path d="M117.88248,15.6361455 C117.88248,16.1793244 118.322858,16.6197023 118.8665,16.6197023 C119.409679,16.6197023 119.850057,16.1793244 119.850057,15.6361455 C119.850057,15.0929665 119.409679,14.6521256 118.8665,14.6521256 C118.322858,14.6521256 117.88248,15.0929665 117.88248,15.6361455" id="Fill-37" fill="#F89D1F" mask="url(#mask-2)"></path>
                <path d="M118.969393,9.78560313 C118.969393,9.81709176 118.97032,9.84765426 118.970783,9.8791429 L120.935581,9.8791429 C120.936044,9.84765426 120.93697,9.81709176 120.93697,9.78560313 C120.93697,9.56796108 120.930487,9.35587585 120.919374,9.14934744 L118.992547,9.04330483 C118.977729,9.28271108 118.969393,9.53045256 118.969393,9.78560313" id="Fill-38" fill="#F89D1F" mask="url(#mask-2)"></path>
                <path d="M132.885611,9.81005312 L125.826137,9.42061278 L121.357992,9.17379744 C121.34873,9.36550767 121.342711,9.56092244 121.342711,9.76189403 C121.342711,9.79384574 121.3441,9.82440824 121.3441,9.85589688 L123.198688,9.85589688 L123.198688,12.2916355 L122.430458,12.2916355 L123.189426,29.4626668 C129.349159,27.5728855 133.828418,21.8410276 133.828418,15.0621724 C133.828418,13.2145304 133.494083,11.4456099 132.885611,9.81005312" id="Fill-39" fill="#F89D1F" mask="url(#mask-2)"></path>
                <path d="M117.579726,6.31916733 C117.036547,6.31916733 116.596169,7.87137188 116.596169,9.78569574 C116.596169,9.81718437 116.597095,9.84774688 116.597095,9.87923551 L118.562357,9.87923551 C118.562357,9.84774688 118.563746,9.81718437 118.563746,9.78569574 C118.563746,7.87137188 118.122905,6.31916733 117.579726,6.31916733" id="Fill-40" fill="#F89D1F" mask="url(#mask-2)"></path>
                <path d="M118.866268,26.5747884 C118.323089,26.5747884 117.882248,27.0151662 117.882248,27.5588082 C117.882248,28.1019872 118.323089,28.5423651 118.866268,28.5423651 C119.409447,28.5423651 119.850288,28.1019872 119.850288,27.5588082 C119.850288,27.0151662 119.409447,26.5747884 118.866268,26.5747884" id="Fill-41" fill="#F89D1F" mask="url(#mask-2)"></path>
                <path d="M118.866268,20.6136653 C118.323089,20.6136653 117.882248,21.0540432 117.882248,21.5972222 C117.882248,22.1404011 118.323089,22.581242 118.866268,22.581242 C119.409447,22.581242 119.850288,22.1404011 119.850288,21.5972222 C119.850288,21.0540432 119.409447,20.6136653 118.866268,20.6136653" id="Fill-42" fill="#F89D1F" mask="url(#mask-2)"></path>
            </g>
        </g>
    </g>
</svg>