<?xml version="1.0" encoding="UTF-8" standalone="no"?>
<svg width="123px" height="24px" viewBox="0 0 123 24" version="1.1" xmlns="http://www.w3.org/2000/svg" xmlns:xlink="http://www.w3.org/1999/xlink">
    <defs></defs>
    <g id="logo-beacon-topbar">
        <path d="M7.23176923,19.3942615 L4.01064103,19.3942615 L4.01064103,14.0576034 L7.23176923,14.0576034 C8.71582906,14.0576034 9.9475812,15.2571162 9.9475812,16.7415265 C9.9475812,18.2255863 8.71582906,19.3942615 7.23176923,19.3942615 Z M3.91602564,4.74149231 L5.84197436,4.74149231 C7.0737265,4.74149231 8.39974359,5.68904786 8.39974359,7.23618462 C8.39974359,8.78367179 7.0737265,9.79395385 5.84197436,9.79395385 L3.91602564,9.79395385 L3.91602564,4.74149231 Z M11.3685641,11.1518598 C12.095,10.1100393 12.5053504,8.87793675 12.5053504,7.5203812 C12.5053504,3.95197949 9.59995726,1.04693675 6.03155556,1.04693675 L0,1.04693675 L0,23.1522444 L7.29484615,23.1522444 C10.9897521,23.1522444 13.9894103,20.1837744 13.9894103,16.4573299 C13.9894103,14.3099111 12.9787778,12.3832615 11.3685641,11.1518598 Z" id="Fill-1" fill="#FFFFFF"></path>
        <polygon id="Fill-3" fill="#FFFFFF" points="17.7785812 13.9625325 29.999735 13.9625325 29.999735 9.54154103 17.7785812 9.54154103"></polygon>
        <polygon id="Fill-5" fill="#FFFFFF" points="17.7785812 23.1521393 32.4313504 23.1521393 32.4313504 18.7311479 17.7785812 18.7311479"></polygon>
        <polygon id="Fill-6" fill="#FFFFFF" points="17.7785812 5.43628462 32.5263162 5.43628462 32.5263162 1.01529316 17.7785812 1.01529316"></polygon>
        <polygon id="Fill-7" fill="#FFFFFF" points="46.3261453 1.01532821 35.052547 23.1521744 40.0103932 23.1521744 46.863 9.69926838 53.1787521 23.1521744 58.0735214 23.1521744 47.6209744 1.01532821"></polygon>
        <path d="M63.3153889,12.1311291 C63.3153889,6.19418889 69.7891838,3.6048812 74.0840214,6.38377009 L76.9259872,3.09956496 C74.9677991,1.58361624 72.5049957,0.667949573 69.8526111,0.667949573 C63.5365085,0.667949573 58.3890812,5.81537692 58.3890812,12.1311291 C58.3890812,18.4465308 63.5365085,23.5939581 69.8526111,23.5939581 C72.6315,23.5939581 75.1892692,22.5836761 77.1786453,20.9415735 L74.3366795,17.6885564 C70.1679957,20.8466077 63.3153889,18.3522658 63.3153889,12.1311291" id="Fill-8" fill="#FFFFFF"></path>
        <polygon id="Fill-9" fill="#FFFFFF" points="118.452259 1.01532821 118.452259 13.3941744 106.231105 1.01532821 104.841661 1.01532821 104.841661 23.1521744 109.262652 23.1521744 109.262652 10.2361231 121.704926 23.1521744 122.87325 23.1521744 122.87325 1.01532821"></polygon>
        <path d="M101.204645,11.3981051 C101.204645,17.6931821 96.1013718,22.7964556 89.8066453,22.7964556 C83.5112179,22.7964556 78.4082949,17.6931821 78.4082949,11.3981051 C78.4082949,5.10302821 83.5112179,0.000105128205 89.8066453,0.000105128205 C96.1013718,0.000105128205 101.204645,5.10302821 101.204645,11.3981051" id="Fill-10" fill="#F89D1F"></path>
        <path d="M89.1375043,20.8548427 C89.1375043,20.4437915 89.4707607,20.110535 89.8821624,20.110535 C90.2932137,20.110535 90.6264701,20.4437915 90.6264701,20.8548427 C90.6264701,21.2662444 90.2932137,21.5995009 89.8821624,21.5995009 C89.4707607,21.5995009 89.1375043,21.2662444 89.1375043,20.8548427 M88.1640171,7.4050906 C88.1640171,5.95642393 88.4972735,4.78214188 88.9083248,4.78214188 C89.3197265,4.78214188 89.6529829,5.95642393 89.6529829,7.4050906 C89.6529829,7.42891966 89.6519316,7.45239829 89.6519316,7.47622735 L88.1650684,7.47622735 C88.1647179,7.45239829 88.1640171,7.42891966 88.1640171,7.4050906 M90.6264701,16.3437915 C90.6264701,16.7551932 90.2932137,17.0880991 89.8821624,17.0880991 C89.4707607,17.0880991 89.1375043,16.7551932 89.1375043,16.3437915 C89.1375043,15.9327402 89.4707607,15.5994838 89.8821624,15.5994838 C90.2932137,15.5994838 90.6264701,15.9327402 90.6264701,16.3437915 M90.6264701,11.8327402 C90.6264701,12.2437915 90.2932137,12.5770479 89.8821624,12.5770479 C89.4707607,12.5770479 89.1375043,12.2437915 89.1375043,11.8327402 C89.1375043,11.4213385 89.4707607,11.0880821 89.8821624,11.0880821 C90.2932137,11.0880821 90.6264701,11.4213385 90.6264701,11.8327402 M89.9774786,6.84370598 L91.4359573,6.92395385 C91.4443675,7.07989402 91.4489231,7.24038974 91.4489231,7.4050906 C91.4489231,7.42891966 91.4482222,7.45239829 91.4478718,7.47622735 L89.9610085,7.47622735 C89.9610085,7.45239829 89.9599573,7.42891966 89.9599573,7.4050906 C89.9599573,7.21200513 89.966265,7.0245265 89.9774786,6.84370598 M90.7046154,4.78214188 C90.9772479,4.78214188 91.2155385,5.30147521 91.3451966,6.07346667 L90.0356496,6.25814188 C90.156547,5.38487692 90.4102564,4.78214188 90.7046154,4.78214188 M93.1534017,22.2958 L92.5794017,9.30160342 L93.1604103,9.30160342 L93.1604103,7.45835556 L91.7572991,7.45835556 C91.7569487,7.4345265 91.7562479,7.41174872 91.7562479,7.38756923 C91.7562479,7.23548376 91.760453,7.08725299 91.7674615,6.94217607 L95.1490855,7.12895385 L100.491,7.42366325 C100.165453,6.54829573 99.7351282,5.72374017 99.215094,4.96506496 L95.0818034,5.54712479 L91.8697863,5.9995265 C91.9983932,5.27729573 92.2233675,4.79020171 92.4819829,4.76777436 C92.2300256,3.56055214 91.193812,2.64348376 89.9298205,2.57024444 L89.9298205,1.04203077 L89.6060256,1.04203077 L89.6060256,2.57024444 C88.3395812,2.64348376 87.3009145,3.56440684 87.0521111,4.77478291 C87.071735,4.7695265 87.0920598,4.76427009 87.1123846,4.76427009 C87.5234359,4.76427009 87.8566923,5.93890256 87.8566923,7.38756923 C87.8566923,7.41174872 87.8559915,7.4345265 87.855641,7.45835556 L86.3754359,7.45835556 L86.3754359,9.30160342 L87.1845726,9.30160342 L86.6084701,22.3382017 C87.6236581,22.6346632 88.6959658,22.7965607 89.8064701,22.7965607 C90.9712906,22.7965607 92.0951111,22.6206462 93.1534017,22.2958" id="Fill-11" fill="#FFFFFF"></path>
    </g>
</svg>