<?xml version="1.0" encoding="UTF-8" standalone="no"?>
<svg width="235px" height="67px" viewBox="0 0 235 67" version="1.1" xmlns="http://www.w3.org/2000/svg" xmlns:xlink="http://www.w3.org/1999/xlink">
    <!-- Generator: Sketch 41.2 (35397) - http://www.bohemiancoding.com/sketch -->
    <title>logo-beacon-hero</title>
    <desc>Created with Sketch.</desc>
    <defs></defs>
    <g id="Assets" stroke="none" stroke-width="1" fill="none" fill-rule="evenodd">
        <g id="logo-beacon-hero">
            <path d="M13.9112656,36.9490099 L7.77456108,36.9490099 L7.77456108,26.7819219 L13.9112656,26.7819219 C16.7386094,26.7819219 19.0852713,29.0671634 19.0852713,31.8951747 C19.0852713,34.7225185 16.7386094,36.9490099 13.9112656,36.9490099 Z M7.5943054,9.03341335 L11.2635099,9.03341335 C13.6101719,9.03341335 16.1364219,10.837973 16.1364219,13.7854872 C16.1364219,16.7343366 13.6101719,18.6590668 11.2635099,18.6590668 L7.5943054,18.6590668 L7.5943054,9.03341335 Z M21.7924446,21.2460696 C23.1764077,19.2605866 23.9581832,16.9139247 23.9581832,14.3275895 C23.9581832,7.52861222 18.4229986,1.99409517 11.6246889,1.99409517 L0.133723011,1.99409517 L0.133723011,44.1084986 L14.0314361,44.1084986 C21.0707543,44.1084986 26.785527,38.4531435 26.785527,31.3537401 C26.785527,27.2626037 24.8601293,23.5920639 21.7924446,21.2460696 Z" id="Fill-1" fill="#FFFFFF"></path>
            <polygon id="Fill-3" fill="#FFFFFF" points="34.004233 26.6005312 57.2872585 26.6005312 57.2872585 18.1779176 34.004233 18.1779176"></polygon>
            <polygon id="Fill-5" fill="#FFFFFF" points="34.004233 44.1080313 61.9198295 44.1080313 61.9198295 35.6854176 34.004233 35.6854176"></polygon>
            <polygon id="Fill-6" fill="#FFFFFF" points="34.004233 10.3568239 62.1007528 10.3568239 62.1007528 1.93421023 34.004233 1.93421023"></polygon>
            <polygon id="Fill-7" fill="#FFFFFF" points="88.3916449 1.93421023 66.9138466 44.1080312 76.3592443 44.1080312 89.414429 18.4790114 101.44683 44.1080312 110.772057 44.1080312 90.8584773 1.93421023"></polygon>
            <path d="M120.758489,23.1110483 C120.758489,11.8010057 133.091983,6.86734091 141.274256,12.161517 L146.688602,5.90464205 C142.957977,3.01721307 138.265989,1.27273864 133.212821,1.27273864 C121.179753,1.27273864 111.373176,11.0793153 111.373176,23.1110483 C111.373176,35.1427813 121.179753,44.9500256 133.212821,44.9500256 C138.506997,44.9500256 143.379909,43.0252955 147.169952,39.896858 L141.755605,33.6994006 C133.813673,39.7159347 120.758489,34.9631932 120.758489,23.1110483" id="Fill-8" fill="#FFFFFF"></path>
            <polygon id="Fill-9" fill="#FFFFFF" points="225.80202 1.93421023 225.80202 25.5176619 202.518994 1.93421023 199.871906 1.93421023 199.871906 44.1080312 208.29452 44.1080312 208.29452 19.5017955 231.99881 44.1080312 234.224634 44.1080312 234.224634 1.93421023"></polygon>
            <polygon id="Fill-10" fill="#FFFFFF" points="32.1092784 57.6352855 34.1127869 57.6352855 34.1127869 65.7434531 35.0274176 65.7434531 35.0274176 57.6352855 37.0376023 57.6352855 37.0376023 56.7633821 32.1092784 56.7633821"></polygon>
            <path d="M38.8258722,60.6930227 L38.8258722,57.6413608 L40.4061136,57.6413608 C41.0236562,57.6413608 41.4636136,57.6947699 41.7259858,57.8022557 C41.988358,57.9090739 42.2013267,58.0859915 42.364892,58.3316733 C42.5277898,58.5780227 42.6099062,58.8504091 42.6099062,59.1488324 C42.6099062,59.4592727 42.5304602,59.7403381 42.3709006,59.9900256 C42.2113409,60.2410483 41.9876903,60.4226392 41.6986136,60.5354659 C41.4102045,60.6482926 40.9675767,60.7050398 40.3700625,60.7050398 L38.8258722,60.6930227 Z M42.2133437,61.276517 C42.6432869,61.0855795 42.9737557,60.806517 43.2034148,60.4386619 C43.4330739,60.0714744 43.548571,59.6415313 43.548571,59.1488324 C43.548571,58.5640028 43.381,58.0699688 43.045858,57.6694006 C42.7113835,57.2674972 42.276767,57.0057926 41.744679,56.8842869 C41.3888409,56.8035057 40.7132159,56.7634489 39.7158011,56.7634489 L37.9299347,56.7634489 L37.9299347,65.7428523 L38.8258722,65.7428523 L38.8258722,61.5649261 L39.994196,61.5649261 L42.567179,65.7428523 L43.6694091,65.7428523 L41.0964261,61.5649261 C41.4115398,61.5649261 41.7834006,61.4687898 42.2133437,61.276517 L42.2133437,61.276517 Z" id="Fill-11" fill="#FFFFFF"></path>
            <path d="M47.038054,61.8978651 L48.5882528,58.6405781 L50.11375,61.8978651 L47.038054,61.8978651 Z M48.4794318,56.7392145 L44.2347443,65.7186179 L45.2401705,65.7186179 L46.6381534,62.7577514 L50.5136506,62.7577514 L51.9236506,65.7186179 L52.8803409,65.7186179 L48.6970739,56.7392145 L48.4794318,56.7392145 Z" id="Fill-12" fill="#FFFFFF"></path>
            <polygon id="Fill-13" fill="#FFFFFF" points="60.0027102 63.6353295 54.0329091 56.7635824 53.8393011 56.7635824 53.8393011 65.7429858 54.7712898 65.7429858 54.7712898 58.955358 60.6810057 65.7429858 60.8866307 65.7429858 60.8866307 56.7635824 60.0027102 56.7635824"></polygon>
            <path d="M64.9332372,60.7412244 C64.2756378,60.2572045 63.8877543,59.9561108 63.7709219,59.8392784 C63.5526122,59.6296477 63.4030668,59.4313665 63.3222855,59.2457699 C63.2421719,59.0595057 63.2021151,58.8699034 63.2021151,58.6762955 C63.2021151,58.3578438 63.3169446,58.0881278 63.5466037,57.868483 C63.7769304,57.6481705 64.071348,57.5380142 64.4311918,57.5380142 C64.7135923,57.5380142 64.9739616,57.6107841 65.2116321,57.7529858 C65.4499702,57.8965227 65.737044,58.1909403 66.0715185,58.6342358 L66.8038906,58.0834545 C66.3926406,57.5219915 66.0034219,57.1361108 65.6355668,56.923142 C65.2683793,56.7115085 64.8751548,56.6066932 64.4552259,56.6066932 C64.0559929,56.6066932 63.6847997,56.6994915 63.3436491,56.8877585 C63.0024986,57.075358 62.7394588,57.3283835 62.5538622,57.6475028 C62.3682656,57.9666222 62.2754673,58.3217926 62.2754673,58.7130142 C62.2754673,59.2090511 62.4343594,59.6677017 62.7534787,60.0876307 C62.9310639,60.3413239 63.3950554,60.7512386 64.1461207,61.3160398 C64.8931804,61.7326307 65.4079105,62.139875 65.6896435,62.539108 C65.8919304,62.8301875 65.9927401,63.1246051 65.9927401,63.4243636 C65.9927401,63.6900739 65.9246435,63.940429 65.7871151,64.1740937 C65.6495866,64.4084261 65.4479673,64.595358 65.1815895,64.736892 C64.9152116,64.8784261 64.6308082,64.9498608 64.3277116,64.9498608 C63.6260497,64.9498608 63.0058366,64.4544915 62.4690753,63.4657557 L61.7066605,63.9264091 C62.0778537,64.6080426 62.485098,65.094733 62.9297287,65.3851449 C63.3730241,65.6755568 63.8697287,65.8210966 64.4185071,65.8210966 C65.1255099,65.8210966 65.7256946,65.5814233 66.2203963,65.1000739 C66.7144304,64.6207273 66.9621151,64.0532557 66.9621151,63.3989943 C66.9621151,62.9510256 66.8172429,62.539108 66.5288338,62.1639091 C66.2404247,61.7880426 65.7083366,61.3147045 64.9332372,60.7412244" id="Fill-14" fill="#FFFFFF"></path>
            <polygon id="Fill-15" fill="#FFFFFF" points="68.2835227 65.7433864 69.1794602 65.7433864 69.1794602 56.763983 68.2835227 56.763983"></polygon>
            <polygon id="Fill-16" fill="#FFFFFF" points="69.9083608 57.6352855 71.9118693 57.6352855 71.9118693 65.7434531 72.8265 65.7434531 72.8265 57.6352855 74.8366847 57.6352855 74.8366847 56.7633821 69.9083608 56.7633821"></polygon>
            <polygon id="Fill-17" fill="#FFFFFF" points="75.5531676 65.7433864 76.4491051 65.7433864 76.4491051 56.763983 75.5531676 56.763983"></polygon>
            <path d="M85.7025639,63.0570426 C85.3714276,63.6405369 84.9094389,64.101858 84.3159304,64.4410057 C83.7224219,64.7801534 83.0781747,64.9497273 82.3845241,64.9497273 C81.3430469,64.9497273 80.4544531,64.6185909 79.7174077,63.9569858 C78.9810298,63.2940455 78.6125071,62.4301534 78.6125071,61.3653097 C78.6125071,60.6469574 78.7780753,59.9933636 79.1092116,59.4058636 C79.4396804,58.8190312 79.9030043,58.3523693 80.4985156,58.0085483 C81.094027,57.6627244 81.7222514,57.4898125 82.3845241,57.4898125 C83.0628196,57.4898125 83.7023935,57.6627244 84.3039134,58.0085483 C84.9054332,58.3523693 85.3714276,58.814358 85.7025639,59.3911761 C86.0337003,59.9686619 86.1992685,60.6122415 86.1992685,61.3219148 C86.1992685,61.8960625 86.0337003,62.4742159 85.7025639,63.0570426 M82.348473,56.6065597 C81.5086151,56.6065597 80.7275071,56.8141875 80.0051491,57.2321136 C79.2821236,57.6500398 78.7133168,58.2288608 78.2980611,58.9672415 C77.8814702,59.7056222 77.6738423,60.5054233 77.6738423,61.3653097 C77.6738423,62.5149403 78.1318253,63.5450682 79.0484588,64.4556932 C79.9644247,65.3663182 81.0886861,65.8216307 82.4205753,65.8216307 C83.7324361,65.8216307 84.8446804,65.3996989 85.7566406,64.5558352 C86.6692685,63.7126392 87.1252486,62.6344432 87.1252486,61.3219148 C87.1252486,59.9940312 86.6679332,58.876446 85.7539702,57.9684915 C84.8393395,57.0598693 83.7043963,56.6065597 82.348473,56.6065597" id="Fill-18" fill="#FFFFFF"></path>
            <polygon id="Fill-19" fill="#FFFFFF" points="94.6472514 63.6353295 88.6774503 56.7635824 88.4838423 56.7635824 88.4838423 65.7429858 89.415831 65.7429858 89.415831 58.955358 95.3255469 65.7429858 95.5311719 65.7429858 95.5311719 56.7635824 94.6472514 56.7635824"></polygon>
            <path d="M103.497004,64.7801534 C103.19057,64.9130085 102.877459,64.9797699 102.558339,64.9797699 C102.143084,64.9797699 101.789249,64.84825 101.498837,64.5858778 C101.208425,64.3228381 101.062885,64.0204091 101.062885,63.6779233 C101.062885,63.391517 101.181053,63.077071 101.417388,62.7359205 C101.653055,62.3954375 102.153098,61.9374545 102.915513,61.3653097 C103.214604,61.7118011 103.48699,62.0122273 103.733339,62.2665881 L105.192743,63.7747273 C104.538482,64.2387188 103.97368,64.5738608 103.497004,64.7801534 M102.177132,59.0393438 C102.096351,58.8944716 102.056294,58.7435909 102.056294,58.5867017 C102.056294,58.3717301 102.157104,58.1868011 102.358723,58.0325824 C102.560342,57.8763608 102.818709,57.7989176 103.13449,57.7989176 C103.464959,57.7989176 103.731337,57.8736903 103.932956,58.0259062 C104.135243,58.1774545 104.236053,58.3557074 104.236053,58.562 C104.236053,58.7435909 104.159277,58.9492159 104.005726,59.178875 C103.788084,59.5060057 103.460953,59.8398125 103.025001,60.1782926 C102.66182,59.766375 102.378751,59.3871705 102.177132,59.0393438 M106.518624,63.8227955 C106.829064,63.5650966 107.180229,63.2640028 107.572118,62.9208494 L106.960584,62.2725966 C106.686195,62.5236193 106.322345,62.8367301 105.870371,63.2112614 L104.938382,62.2725966 L103.581791,60.8439034 C104.203339,60.315821 104.619263,59.8818722 104.829561,59.5420568 C105.039192,59.2029091 105.144007,58.8844574 105.144007,58.5867017 C105.144007,58.2989602 105.063226,58.0292443 104.901663,57.7742159 C104.740768,57.5205227 104.505101,57.3182358 104.196663,57.169358 C103.887558,57.0198125 103.54574,56.9457074 103.169874,56.9457074 C102.577033,56.9457074 102.080328,57.1152813 101.681095,57.4537614 C101.333268,57.748179 101.160357,58.1180369 101.160357,58.562 C101.160357,58.8196989 101.230456,59.09075 101.37199,59.372483 C101.512857,59.6548835 101.829973,60.0955085 102.322672,60.6930227 C101.450768,61.3786619 100.873283,61.9461335 100.590882,62.3947699 C100.308482,62.842071 100.166947,63.2920426 100.166947,63.744017 C100.166947,64.3335199 100.377246,64.8268864 100.797175,65.2241165 C101.216436,65.6226818 101.771891,65.8216307 102.461536,65.8216307 C102.982274,65.8216307 103.476976,65.7288324 103.944973,65.5452386 C104.413638,65.3623125 105.033183,64.977767 105.804277,64.3922699 L106.960584,65.5973125 L108.207686,65.5973125 C107.986038,65.3349403 107.719661,65.0485341 107.407885,64.7374261 C107.016663,64.3462045 106.720243,64.0411051 106.518624,63.8227955" id="Fill-20" fill="#FFFFFF"></path>
            <polygon id="Fill-21" fill="#FFFFFF" points="112.975983 56.7394815 112.074037 56.7394815 112.074037 65.7182173 116.428213 65.7182173 116.428213 64.8516548 112.975983 64.8516548"></polygon>
            <polygon id="Fill-22" fill="#FFFFFF" points="117.277017 65.7433864 118.173622 65.7433864 118.173622 56.763983 117.277017 56.763983"></polygon>
            <polygon id="Fill-23" fill="#FFFFFF" points="119.786109 65.7431193 120.682714 65.7431193 120.682714 61.340875 123.085456 61.340875 123.085456 60.4569545 120.682714 60.4569545 120.682714 57.6476364 124.733126 57.6476364 124.733126 56.7637159 119.786109 56.7637159"></polygon>
            <polygon id="Fill-24" fill="#FFFFFF" points="125.987906 65.7431193 131.097821 65.7431193 131.097821 64.8518551 126.883176 64.8518551 126.883176 61.328858 129.474852 61.328858 129.474852 60.4569545 126.883176 60.4569545 126.883176 57.6476364 131.133872 57.6476364 131.133872 56.7637159 125.987906 56.7637159"></polygon>
            <path d="M137.822426,57.9867173 C138.431957,57.6435639 139.095565,57.4719872 139.814585,57.4719872 C140.468179,57.4719872 141.068364,57.6028395 141.615139,57.8618736 C142.162582,58.1222429 142.629912,58.5067884 143.017128,59.0155099 L143.731474,58.4834219 C143.300196,57.8812344 142.746077,57.4145724 142.069116,57.0821009 C141.394159,56.748294 140.635082,56.5820582 139.795892,56.5820582 C138.411261,56.5820582 137.257625,57.0320298 136.335651,57.931973 C135.413676,58.8325838 134.952355,59.9388196 134.952355,61.2500128 C134.952355,62.367598 135.33156,63.3690185 136.090636,64.2529389 C136.999259,65.2984219 138.239685,65.8211634 139.814585,65.8211634 C140.637753,65.8211634 141.384145,65.6656094 142.053761,65.355169 C142.724045,65.0440611 143.283506,64.6041037 143.731474,64.0359645 L143.017128,63.4958651 C142.173264,64.4819304 141.121773,64.9739616 139.862653,64.9739616 C138.720366,64.9739616 137.77369,64.6401548 137.022625,63.971206 C136.272227,63.3035923 135.897028,62.4230099 135.897028,61.3287912 C135.897028,60.6017599 136.065267,59.9488338 136.402412,59.3693452 C136.739557,58.7905241 137.212227,58.3298707 137.822426,57.9867173" id="Fill-25" fill="#FFFFFF"></path>
            <path d="M152.72443,63.0570426 C152.393294,63.6405369 151.931973,64.101858 151.337797,64.4410057 C150.744288,64.7801534 150.101376,64.9497273 149.407058,64.9497273 C148.365581,64.9497273 147.47632,64.6185909 146.739942,63.9569858 C146.002896,63.2940455 145.634374,62.4301534 145.634374,61.3653097 C145.634374,60.6469574 145.799942,59.9933636 146.131746,59.4058636 C146.461547,58.8190312 146.925538,58.3523693 147.52105,58.0085483 C148.116561,57.6627244 148.745453,57.4898125 149.407058,57.4898125 C150.084686,57.4898125 150.724928,57.6627244 151.32578,58.0085483 C151.927967,58.3523693 152.393294,58.814358 152.72443,59.3911761 C153.055567,59.9686619 153.221135,60.6122415 153.221135,61.3219148 C153.221135,61.8960625 153.055567,62.4742159 152.72443,63.0570426 M149.370339,56.6065597 C148.531149,56.6065597 147.749374,56.8141875 147.027016,57.2321136 C146.30399,57.6500398 145.735851,58.2288608 145.319928,58.9672415 C144.904672,59.7056222 144.695709,60.5054233 144.695709,61.3653097 C144.695709,62.5149403 145.154359,63.5450682 146.070993,64.4556932 C146.986291,65.3663182 148.110553,65.8216307 149.443109,65.8216307 C150.75497,65.8216307 151.867214,65.3996989 152.779842,64.5558352 C153.691135,63.7126392 154.147783,62.6344432 154.147783,61.3219148 C154.147783,59.9940312 153.690467,58.876446 152.776504,57.9684915 C151.861874,57.0598693 150.726263,56.6065597 149.370339,56.6065597" id="Fill-26" fill="#FFFFFF"></path>
            <path d="M157.516695,61.8978651 L159.066893,58.6405781 L160.592391,61.8978651 L157.516695,61.8978651 Z M158.957405,56.7392145 L154.713385,65.7186179 L155.718143,65.7186179 L157.116794,62.7577514 L160.991624,62.7577514 L162.402959,65.7186179 L163.358982,65.7186179 L159.175047,56.7392145 L158.957405,56.7392145 Z" id="Fill-27" fill="#FFFFFF"></path>
            <path d="M166.77002,57.9867173 C167.378884,57.6435639 168.043159,57.4719872 168.762179,57.4719872 C169.415773,57.4719872 170.015957,57.6028395 170.562733,57.8618736 C171.110176,58.1222429 171.577506,58.5067884 171.964054,59.0155099 L172.679068,58.4834219 C172.24779,57.8812344 171.69367,57.4145724 171.01671,57.0821009 C170.341085,56.748294 169.582676,56.5820582 168.743486,56.5820582 C167.358855,56.5820582 166.205219,57.0320298 165.282577,57.931973 C164.360602,58.8325838 163.899949,59.9388196 163.899949,61.2500128 C163.899949,62.367598 164.279153,63.3690185 165.03823,64.2529389 C165.946852,65.2984219 167.187278,65.8211634 168.762179,65.8211634 C169.585347,65.8211634 170.331071,65.6656094 171.001355,65.355169 C171.671639,65.0440611 172.231099,64.6041037 172.679068,64.0359645 L171.964054,63.4958651 C171.120858,64.4819304 170.069366,64.9739616 168.80958,64.9739616 C167.66796,64.9739616 166.721284,64.6401548 165.970219,63.971206 C165.219821,63.3035923 164.843955,62.4230099 164.843955,61.3287912 C164.843955,60.6017599 165.012861,59.9488338 165.349338,59.3693452 C165.687151,58.7905241 166.159821,58.3298707 166.77002,57.9867173" id="Fill-28" fill="#FFFFFF"></path>
            <polygon id="Fill-29" fill="#FFFFFF" points="179.492533 60.5299915 174.920714 60.5299915 174.920714 56.7633153 174.018768 56.7633153 174.018768 65.7433864 174.920714 65.7433864 174.920714 61.4125767 179.492533 61.4125767 179.492533 65.7433864 180.38847 65.7433864 180.38847 56.7633153 179.492533 56.7633153"></polygon>
            <polygon id="Fill-30" fill="#FFFFFF" points="181.988807 65.7433864 182.885412 65.7433864 182.885412 56.763983 181.988807 56.763983"></polygon>
            <polygon id="Fill-31" fill="#FFFFFF" points="190.668185 63.6353295 184.697716 56.7635824 184.504776 56.7635824 184.504776 65.7429858 185.436764 65.7429858 185.436764 58.955358 191.34648 65.7429858 191.551437 65.7429858 191.551437 56.7635824 190.668185 56.7635824"></polygon>
            <path d="M198.618929,62.1586349 L201.482991,62.1586349 C201.360818,62.9858082 200.980946,63.660098 200.34204,64.180169 C199.701798,64.7015753 198.921358,64.961277 198.001386,64.961277 C197.24231,64.961277 196.543318,64.7883651 195.903077,64.4432088 C195.263503,64.0987202 194.762125,63.622044 194.398276,63.0151832 C194.035094,62.4076548 193.853503,61.7640753 193.853503,61.0864474 C193.853503,60.5536918 194.029085,59.9928963 194.380918,59.4027259 C194.732082,58.8138906 195.225449,58.3452259 195.861017,57.9987344 C196.496585,57.6515753 197.165534,57.4779957 197.867864,57.4779957 C198.437338,57.4779957 199.019497,57.6048423 199.615009,57.8598707 C200.209852,58.1128963 200.757963,58.4874276 201.258006,58.9794588 L201.954994,58.3191889 C201.313418,57.714331 200.657153,57.2730384 199.986869,56.9966463 C199.317253,56.7202543 198.602906,56.5813906 197.843162,56.5813906 C196.903162,56.5813906 196.059966,56.7896861 195.312239,57.2056094 C194.566514,57.6208651 193.979682,58.1622997 193.554412,58.8279105 C193.128474,59.4941889 192.914838,60.2532656 192.914838,61.1051406 C192.914838,62.2467599 193.288702,63.2548565 194.035094,64.1260923 C195.004469,65.2563622 196.315662,65.8211634 197.970676,65.8211634 C199.34329,65.8211634 200.435506,65.4132514 201.249327,64.5980952 C202.063148,63.7836065 202.473063,62.6807088 202.481741,61.2920724 L198.618929,61.2920724 L198.618929,62.1586349 Z" id="Fill-32" fill="#FFFFFF"></path>
            <polygon id="Fill-33" fill="#FFFFFF" points="0 62.6396506 26.5516619 62.6396506 26.5516619 61.3331307 0 61.3331307"></polygon>
            <polygon id="Fill-34" fill="#FFFFFF" points="207.807429 62.6396506 234.358423 62.6396506 234.358423 61.3331307 207.807429 61.3331307"></polygon>
            <path d="M192.942878,21.7152017 C192.942878,33.7082131 183.22042,43.4300028 171.228077,43.4300028 C159.234398,43.4300028 149.512608,33.7082131 149.512608,21.7152017 C149.512608,9.72219034 159.234398,0.000400568182 171.228077,0.000400568182 C183.22042,0.000400568182 192.942878,9.72219034 192.942878,21.7152017" id="Fill-35" fill="#F89D1F"></path>
            <path d="M169.953268,39.7316236 C169.953268,38.9485128 170.588169,38.3136122 171.371947,38.3136122 C172.155058,38.3136122 172.789959,38.9485128 172.789959,39.7316236 C172.789959,40.5147344 172.155058,41.1496349 171.371947,41.1496349 C170.588169,41.1496349 169.953268,40.5147344 169.953268,39.7316236 M168.098638,14.1079446 C168.098638,11.3480298 168.733538,9.11018892 169.516649,9.11018892 C170.300428,9.11018892 170.935328,11.3480298 170.935328,14.1079446 C170.935328,14.1533423 170.933325,14.1980724 170.933325,14.2434702 L168.100641,14.2434702 C168.099973,14.1980724 168.098638,14.1533423 168.098638,14.1079446 M172.789959,31.1374332 C172.789959,31.920544 172.155058,32.5554446 171.371947,32.5554446 C170.588169,32.5554446 169.953268,31.920544 169.953268,31.1374332 C169.953268,30.3536548 170.588169,29.7187543 171.371947,29.7187543 C172.155058,29.7187543 172.789959,30.3536548 172.789959,31.1374332 M172.789959,22.5425753 C172.789959,23.3263537 172.155058,23.9612543 171.371947,23.9612543 C170.588169,23.9612543 169.953268,23.3263537 169.953268,22.5425753 C169.953268,21.7594645 170.588169,21.1245639 171.371947,21.1245639 C172.155058,21.1245639 172.789959,21.7594645 172.789959,22.5425753 M171.553538,13.0377599 L174.332146,13.1913111 C174.347501,13.4883991 174.356848,13.7941662 174.356848,14.1079446 C174.356848,14.1533423 174.355513,14.1980724 174.354845,14.2434702 L171.522161,14.2434702 C171.522161,14.1980724 171.520158,14.1533423 171.520158,14.1079446 C171.520158,13.7400895 171.532175,13.3829162 171.553538,13.0377599 M172.938837,9.11018892 C173.45824,9.11018892 173.912217,10.1002599 174.159234,11.5710128 L171.664362,11.9228452 C171.894689,10.259152 172.378041,9.11018892 172.938837,9.11018892 M177.604121,42.4768509 L176.51057,17.7210696 L177.617473,17.7210696 L177.617473,14.2094219 L174.944348,14.2094219 C174.94368,14.1640241 174.942345,14.1199616 174.942345,14.0745639 C174.942345,13.7848196 174.950357,13.5017514 174.963709,13.226027 L181.40618,13.5818651 L191.583283,14.1433281 C190.96307,12.4749616 190.142572,10.9047344 189.152501,9.45935085 L181.277999,10.5682571 L175.158652,11.4301463 C175.403666,10.0541946 175.832274,9.12621165 176.324973,9.08281676 C175.844959,6.7835554 173.870825,5.0357429 171.462743,4.89687926 L171.462743,1.98541619 L170.845868,1.98541619 L170.845868,4.89687926 C168.433112,5.03641051 166.454305,6.79089915 165.9803,9.09683665 C166.017686,9.08615483 166.056408,9.07680824 166.095129,9.07680824 C166.87824,9.07680824 167.513141,11.3146491 167.513141,14.0745639 C167.513141,14.1199616 167.511805,14.1640241 167.511138,14.2094219 L164.691138,14.2094219 L164.691138,17.7210696 L166.232658,17.7210696 L165.135101,42.5576321 C167.069178,43.1217656 169.112075,43.4302031 171.227743,43.4302031 C173.446891,43.4302031 175.587928,43.0957287 177.604121,42.4768509" id="Fill-36" fill="#FFFFFF"></path>
        </g>
    </g>
</svg>