<svg width="123" height="24" viewBox="0 0 123 24" xmlns="http://www.w3.org/2000/svg"><path d="M7.232 19.394H4.01v-5.336h3.22c1.485 0 2.717 1.2 2.717 2.684 0 1.484-1.232 2.652-2.716 2.652zM3.916 4.741h1.926c1.232 0 2.558.948 2.558 2.495 0 1.548-1.326 2.558-2.558 2.558H3.916V4.741zm7.453 6.41a6.274 6.274 0 0 0 1.136-3.63 6.482 6.482 0 0 0-6.473-6.474H0v22.105h7.295a6.678 6.678 0 0 0 6.694-6.695 6.657 6.657 0 0 0-2.62-5.305zM17.779 13.963h12.22V9.542H17.78zM17.779 23.152H32.43v-4.42H17.78zM17.779 5.436h14.747v-4.42H17.78zM46.326 1.015L35.053 23.152h4.957L46.863 9.7l6.316 13.453h4.895L47.62 1.015zM63.315 12.131c0-5.937 6.474-8.526 10.769-5.747L76.926 3.1A11.547 11.547 0 0 0 69.853.668c-6.316 0-11.464 5.147-11.464 11.463 0 6.316 5.148 11.463 11.464 11.463a11.5 11.5 0 0 0 7.326-2.652l-2.842-3.253c-4.169 3.158-11.022.663-11.022-5.558M118.452 1.015v12.38l-12.22-12.38h-1.39v22.137h4.42V10.236l12.443 12.916h1.168V1.015z" fill="#FFF"/><path d="M101.205 11.398c0 6.295-5.104 11.398-11.398 11.398-6.296 0-11.399-5.103-11.399-11.398S83.511 0 89.807 0c6.294 0 11.398 5.103 11.398 11.398" fill="#F89D1F"/><path d="M89.138 20.855a.744.744 0 1 1 1.488 0 .744.744 0 0 1-1.488 0m-.974-13.45c0-1.449.333-2.623.744-2.623.412 0 .745 1.174.745 2.623l-.001.071h-1.487l-.001-.07m2.462 8.938a.744.744 0 1 1-1.488 0 .744.744 0 0 1 1.488 0m0-4.511a.744.744 0 1 1-1.488 0 .744.744 0 0 1 1.488 0m-.649-4.99l1.459.081c.008.156.013.316.013.481l-.001.071H89.96l-.001-.07c0-.194.006-.381.017-.562m.728-2.062c.272 0 .51.52.64 1.291l-1.31.185c.122-.873.375-1.476.67-1.476m2.448 17.514L92.58 9.302h.581V7.458h-1.403v-.07c0-.153.003-.3.01-.446l3.382.187 5.342.295a11.34 11.34 0 0 0-1.276-2.459l-4.133.582L91.87 6c.128-.723.353-1.21.612-1.232A2.773 2.773 0 0 0 89.93 2.57V1.042h-.324V2.57a2.773 2.773 0 0 0-2.554 2.205c.02-.005.04-.01.06-.01.411 0 .745 1.174.745 2.623l-.001.07h-1.48v1.844h.809l-.577 13.036a11.389 11.389 0 0 0 6.545-.042" fill="#FFF"/></svg>