<svg width="163" height="46" viewBox="0 0 163 46" xmlns="http://www.w3.org/2000/svg" xmlns:xlink="http://www.w3.org/1999/xlink"><title>logo-beacon-footer</title><defs><path id="a" d="M0 45.655h162.555V0H0z"/></defs><g fill="none" fill-rule="evenodd"><path d="M9.65 25.629H5.392v-7.053h4.256c1.961 0 3.589 1.586 3.589 3.547s-1.628 3.506-3.589 3.506zM5.267 6.266h2.545c1.627 0 3.38 1.251 3.38 3.296s-1.753 3.38-3.38 3.38H5.268V6.266zm9.848 8.47a8.292 8.292 0 0 0 1.502-4.798c0-4.716-3.84-8.555-8.555-8.555H.093v29.211h9.64a8.824 8.824 0 0 0 8.846-8.846 8.797 8.797 0 0 0-3.463-7.011z" fill="#048689"/><mask id="b" fill="#fff"><use xlink:href="#a"/></mask><path fill="#048689" mask="url(#b)" d="M23.586 30.594h19.363v-5.842H23.586zM23.586 7.184h19.488V1.342H23.586zM23.586 18.45h16.15V12.61h-16.15zM61.31 1.342L46.413 30.594h6.551l9.055-17.777 8.346 17.777h6.468L63.021 1.342zM83.76 16.03c0-7.845 8.555-11.267 14.23-7.595l3.756-4.34A15.261 15.261 0 0 0 92.399.884C84.052.883 77.25 7.684 77.25 16.03S84.052 31.178 92.4 31.178c3.672 0 7.052-1.335 9.68-3.505l-3.755-4.298c-5.509 4.173-14.564.876-14.564-7.345M156.62 1.342V17.7L140.47 1.342h-1.835v29.252h5.842V13.526l16.441 17.068h1.544V1.342z"/><path fill="#545656" mask="url(#b)" d="M22.272 39.977h1.39v5.624h.634v-5.624h1.394v-.605h-3.418zM26.93 42.097v-2.116h1.096c.429 0 .734.037.916.111.182.074.33.197.443.368.113.17.17.36.17.567 0 .215-.055.41-.166.583a.94.94 0 0 1-.466.378c-.2.078-.507.118-.922.118l-1.07-.009zm2.35.406a1.51 1.51 0 0 0 .687-.581c.159-.256.239-.554.239-.895 0-.406-.116-.748-.349-1.027a1.602 1.602 0 0 0-.902-.544c-.247-.056-.716-.084-1.407-.084h-1.24V45.6h.622v-2.898h.81l1.785 2.898h.765l-1.785-2.898c.219 0 .477-.066.775-.2zM32.626 42.934l1.076-2.26 1.058 2.26h-2.134zm1-3.579l-2.944 6.228h.697l.97-2.053h2.688l.978 2.053h.664l-2.902-6.228h-.15zM41.619 44.139l-4.14-4.767h-.135V45.6h.646v-4.708l4.1 4.708h.142v-6.228h-.613zM45.039 42.131c-.456-.336-.725-.544-.806-.625a1.348 1.348 0 0 1-.312-.412.99.99 0 0 1-.083-.395c0-.221.08-.408.239-.56a.853.853 0 0 1 .614-.23c.195 0 .376.05.54.15.166.1.365.303.597.61l.508-.381c-.285-.39-.555-.657-.81-.805a1.612 1.612 0 0 0-.819-.22 1.57 1.57 0 0 0-.77.195c-.237.13-.42.306-.549.527a1.443 1.443 0 0 0-.193.739c0 .344.11.663.332.954.123.176.445.46.966.852.518.289.875.571 1.07.849.14.201.21.405.21.613a1.009 1.009 0 0 1-.562.91 1.238 1.238 0 0 1-.592.148c-.487 0-.917-.343-1.29-1.029l-.528.319c.257.473.54.81.848 1.012.308.202.652.303 1.033.303.49 0 .906-.167 1.25-.5.342-.333.514-.727.514-1.18 0-.311-.1-.596-.3-.857-.2-.26-.57-.589-1.107-.987M47.363 45.6h.621v-6.228h-.621zM48.49 39.977h1.39v5.624h.634v-5.624h1.394v-.605H48.49zM52.405 45.6h.621v-6.228h-.621zM59.445 43.737c-.23.405-.55.725-.962.96a2.655 2.655 0 0 1-1.34.353c-.722 0-1.338-.23-1.85-.688-.51-.46-.766-1.06-.766-1.798 0-.499.115-.952.344-1.359.23-.407.551-.73.964-.97.413-.24.849-.359 1.308-.359.47 0 .914.12 1.332.36a2.57 2.57 0 0 1 1.314 2.298c0 .398-.115.799-.344 1.203m-2.327-4.474c-.582 0-1.124.145-1.625.434a3.14 3.14 0 0 0-1.184 1.204 3.326 3.326 0 0 0-.433 1.663c0 .797.318 1.512.953 2.144.636.631 1.415.947 2.34.947.91 0 1.68-.293 2.313-.877.633-.586.95-1.334.95-2.244 0-.92-.318-1.696-.952-2.326-.634-.63-1.421-.945-2.362-.945M65.649 44.139l-4.14-4.767h-.135V45.6h.646v-4.708l4.1 4.708h.142v-6.228h-.613zM71.787 44.932c-.212.093-.43.139-.65.139a1.06 1.06 0 0 1-.736-.273c-.201-.182-.302-.392-.302-.63 0-.199.082-.416.246-.653.163-.237.51-.554 1.039-.951.207.24.396.449.567.625l1.012 1.047c-.453.321-.845.553-1.176.696m-.915-3.981a.637.637 0 0 1-.084-.314c0-.15.07-.277.21-.385a.855.855 0 0 1 .538-.162c.23 0 .414.052.554.158.14.105.21.229.21.372 0 .125-.053.268-.16.428-.15.227-.378.458-.68.693a5.105 5.105 0 0 1-.588-.79m3.011 3.317c.215-.178.459-.387.73-.625l-.423-.45c-.19.174-.443.391-.757.651l-.646-.65-.94-.991c.43-.367.719-.668.865-.903.145-.236.218-.456.218-.663 0-.2-.056-.387-.168-.564a1.16 1.16 0 0 0-.49-.42 1.612 1.612 0 0 0-.712-.155c-.41 0-.755.118-1.032.353a.966.966 0 0 0-.361.769c0 .179.048.367.146.562.098.196.318.502.66.916-.605.476-1.006.869-1.201 1.18-.196.31-.295.623-.295.936 0 .41.146.751.438 1.027.29.276.676.414 1.154.414.361 0 .704-.064 1.029-.191.325-.127.755-.394 1.29-.8l.802.835h.865a9.687 9.687 0 0 0-.555-.596 23.174 23.174 0 0 1-.617-.635M78.362 39.355h-.626v6.229h3.02v-.602h-2.394zM81.345 45.6h.622v-6.228h-.622zM83.086 45.6h.622v-3.053h1.666v-.613h-1.666v-1.948h2.809v-.614h-3.431zM87.387 45.6h3.545v-.617h-2.924v-2.444h1.798v-.605h-1.798v-1.948h2.949v-.614h-3.57zM95.596 40.22a2.768 2.768 0 0 1 1.382-.356c.453 0 .87.09 1.249.27.38.18.704.447.972.8l.496-.369a3.05 3.05 0 0 0-1.153-.972 3.517 3.517 0 0 0-1.577-.347c-.96 0-1.76.312-2.4.936-.64.625-.96 1.392-.96 2.302 0 .775.263 1.47.79 2.083.63.725 1.49 1.088 2.583 1.088.57 0 1.088-.108 1.553-.324a3.138 3.138 0 0 0 1.164-.915l-.496-.374c-.585.684-1.315 1.025-2.188 1.025-.792 0-1.449-.232-1.97-.695-.52-.464-.78-1.074-.78-1.833 0-.505.116-.957.35-1.359.234-.402.562-.721.985-.96M105.932 43.737a2.52 2.52 0 0 1-.962.96 2.652 2.652 0 0 1-1.339.353c-.722 0-1.339-.23-1.85-.688-.51-.46-.767-1.06-.767-1.798 0-.499.115-.952.345-1.359.23-.407.551-.73.964-.97.413-.24.85-.359 1.308-.359.47 0 .914.12 1.331.36.418.239.74.559.97.958.23.401.345.848.345 1.34 0 .398-.115.799-.345 1.203m-2.326-4.474c-.582 0-1.125.145-1.626.434-.501.29-.895.692-1.184 1.204a3.336 3.336 0 0 0-.433 1.663c0 .797.319 1.512.954 2.144.635.631 1.415.947 2.34.947.91 0 1.68-.293 2.314-.877.632-.586.949-1.334.949-2.244 0-.92-.318-1.696-.952-2.326-.634-.63-1.422-.945-2.362-.945M109.256 42.934l1.076-2.26 1.058 2.26h-2.134zm1-3.579l-2.944 6.228h.697l.97-2.053h2.688l.978 2.053h.664l-2.902-6.228h-.151zM115.675 40.22a2.767 2.767 0 0 1 1.381-.356c.454 0 .87.09 1.25.27.379.18.703.447.971.8l.496-.369a3.05 3.05 0 0 0-1.153-.972 3.519 3.519 0 0 0-1.577-.347c-.96 0-1.76.312-2.4.936-.64.625-.96 1.392-.96 2.302 0 .775.264 1.47.79 2.083.63.725 1.49 1.088 2.583 1.088a3.65 3.65 0 0 0 1.553-.324 3.138 3.138 0 0 0 1.164-.915l-.496-.374c-.585.684-1.314 1.025-2.188 1.025-.792 0-1.448-.232-1.97-.695-.52-.464-.78-1.074-.78-1.833 0-.505.117-.957.35-1.359.234-.402.562-.721.986-.96M124.5 41.984h-3.172v-2.612h-.626v6.229h.626v-3.004h3.171v3.004h.622v-6.229h-.622zM126.23 45.6h.622v-6.228h-.621zM132.25 44.139l-4.14-4.767h-.134V45.6h.646v-4.708l4.1 4.708h.141v-6.228h-.612zM137.765 42.513v.6h1.987a2.154 2.154 0 0 1-.791 1.404c-.444.36-.986.542-1.624.542-.526 0-1.011-.12-1.455-.36a2.664 2.664 0 0 1-1.044-.99 2.569 2.569 0 0 1-.378-1.339c0-.37.122-.758.366-1.167a2.642 2.642 0 0 1 1.027-.974c.44-.24.904-.361 1.392-.361.395 0 .798.088 1.211.264.413.177.793.436 1.14.777l.483-.458c-.445-.42-.9-.725-1.365-.918a3.858 3.858 0 0 0-1.487-.287c-.652 0-1.236.144-1.755.433a3.347 3.347 0 0 0-1.22 1.125 2.868 2.868 0 0 0-.443 1.58c0 .792.26 1.49.777 2.095.672.784 1.582 1.176 2.73 1.176.952 0 1.71-.283 2.274-.849.564-.565.849-1.33.855-2.293h-2.68z"/><path fill="#048689" mask="url(#b)" d="M0 43.448h18.416v-.906H0zM144.139 43.448h18.416v-.906h-18.416z"/><path d="M114.54 29.519l.762-17.227h-1.07V9.856h1.957l.001-.094c0-1.914-.44-3.466-.984-3.466a.29.29 0 0 0-.08.014 3.664 3.664 0 0 1 3.376-2.913v-2.02h.428v2.02a3.664 3.664 0 0 1 3.372 2.903c-.342.03-.64.673-.809 1.628l4.245-.598 5.461-.769C128.486 2.601 123.93 0 118.767 0c-8.319 0-15.063 6.744-15.063 15.062 0 6.85 4.576 12.63 10.837 14.457" fill="#F89D1F" mask="url(#b)"/><path d="M119.953 6.32c-.388 0-.724.796-.883 1.95l1.73-.244c-.172-1.02-.486-1.707-.847-1.707M117.882 15.636a.984.984 0 1 0 1.968 0 .984.984 0 0 0-1.968 0M118.97 9.786v.093h1.966l.001-.093c0-.218-.007-.43-.018-.637l-1.926-.106c-.015.24-.024.487-.024.743M132.886 9.81l-7.06-.39-4.468-.246c-.01.192-.015.387-.015.588l.001.094h1.855v2.436h-.769l.76 17.17c6.16-1.89 10.638-7.621 10.638-14.4a15.03 15.03 0 0 0-.942-5.252M117.58 6.32c-.543 0-.984 1.551-.984 3.466l.001.093h1.965l.002-.093c0-1.915-.441-3.467-.984-3.467M118.866 26.575a.984.984 0 1 0 0 1.968.984.984 0 0 0 0-1.968M118.866 20.614a.984.984 0 1 0 0 1.968.984.984 0 0 0 0-1.968" fill="#F89D1F" mask="url(#b)"/></g></svg>