<svg width="245" height="69" viewBox="0 0 245 69" xmlns="http://www.w3.org/2000/svg"><title>logo-beacon-hero-over-orange</title><g fill="none" fill-rule="evenodd"><path d="M18.911 36.949h-6.136V26.782h6.136c2.828 0 5.174 2.285 5.174 5.113 0 2.828-2.346 5.054-5.174 5.054zM12.594 9.033h3.67c2.346 0 4.872 1.805 4.872 4.752 0 2.95-2.526 4.874-4.872 4.874h-3.67V9.033zm14.198 12.213a11.955 11.955 0 0 0 2.166-6.918c0-6.8-5.535-12.334-12.333-12.334H5.134v42.114H19.03c7.04 0 12.755-5.655 12.755-12.754 0-4.091-1.926-7.762-4.994-10.108zM39.004 26.6h23.283v-8.422H39.004zM39.004 44.108H66.92v-8.423H39.004zM39.004 10.357h28.097V1.934H39.004zM93.392 1.934L71.914 44.108h9.445l13.055-25.629 12.033 25.629h9.325L95.858 1.934zM125.758 23.111c0-11.31 12.334-16.244 20.516-10.95l5.415-6.256c-3.731-2.888-8.423-4.632-13.476-4.632-12.033 0-21.84 9.806-21.84 21.838 0 12.032 9.807 21.839 21.84 21.839 5.294 0 10.167-1.925 13.957-5.053l-5.414-6.198c-7.942 6.017-20.998 1.264-20.998-10.588M230.802 1.934v23.584L207.519 1.934h-2.647v42.174h8.423V19.502l23.704 24.606h2.226V1.934zM37.11 57.635h2.003v8.108h.914v-8.108h2.01v-.872H37.11zM43.826 60.693v-3.052h1.58c.618 0 1.058.054 1.32.161.262.107.475.284.639.53.163.246.245.518.245.817 0 .31-.08.591-.24.841-.159.251-.382.433-.671.545-.289.113-.731.17-1.329.17l-1.544-.012zm3.387.584c.43-.191.76-.47.99-.838.23-.368.346-.797.346-1.29 0-.585-.168-1.079-.503-1.48a2.314 2.314 0 0 0-1.301-.785c-.356-.08-1.032-.12-2.03-.12H42.93v8.979h.896v-4.178h1.168l2.573 4.178h1.102l-2.573-4.178c.316 0 .687-.096 1.117-.288zM52.038 61.898l1.55-3.257 1.526 3.257h-3.076zm1.441-5.159l-4.244 8.98h1.005l1.398-2.961h3.876l1.41 2.96h.956l-4.183-8.979h-.218zM65.003 63.635l-5.97-6.871h-.194v8.979h.932v-6.788l5.91 6.788h.206v-8.98h-.884zM69.933 60.741c-.657-.484-1.045-.785-1.162-.902-.218-.21-.368-.408-.449-.593a1.428 1.428 0 0 1-.12-.57c0-.318.115-.588.345-.808.23-.22.524-.33.884-.33.283 0 .543.073.78.215.239.144.526.438.86.881l.733-.55c-.411-.562-.8-.948-1.168-1.16a2.324 2.324 0 0 0-1.18-.317c-.4 0-.771.092-1.112.28-.342.188-.605.441-.79.76a2.08 2.08 0 0 0-.279 1.066c0 .496.16.955.478 1.375.178.253.642.663 1.393 1.228.747.417 1.262.824 1.544 1.223.202.291.303.586.303.885 0 .266-.068.516-.206.75-.137.234-.339.421-.605.563-.267.141-.551.213-.854.213-.702 0-1.322-.496-1.859-1.484l-.762.46c.37.682.778 1.169 1.223 1.46.443.29.94.435 1.489.435.707 0 1.307-.24 1.801-.72s.742-1.048.742-1.702c0-.448-.145-.86-.433-1.235-.289-.376-.82-.85-1.596-1.423M73.284 65.743h.895v-8.979h-.895zM74.908 57.635h2.004v8.108h.914v-8.108h2.01v-.872h-4.928zM80.553 65.743h.896v-8.979h-.896zM90.703 63.057a3.638 3.638 0 0 1-1.387 1.384 3.828 3.828 0 0 1-1.931.509c-1.042 0-1.93-.331-2.668-.993-.736-.663-1.104-1.527-1.104-2.592 0-.718.165-1.372.496-1.96a3.67 3.67 0 0 1 1.39-1.396 3.697 3.697 0 0 1 1.886-.52 3.79 3.79 0 0 1 1.919.52 3.69 3.69 0 0 1 1.399 1.382c.33.578.496 1.221.496 1.93 0 .575-.165 1.153-.496 1.736m-3.355-6.45c-.84 0-1.62.207-2.343.625a4.53 4.53 0 0 0-1.707 1.735 4.8 4.8 0 0 0-.624 2.398c0 1.15.458 2.18 1.374 3.09.916.911 2.04 1.367 3.373 1.367 1.311 0 2.424-.422 3.336-1.266.912-.843 1.368-1.922 1.368-3.234 0-1.328-.457-2.446-1.371-3.354-.915-.908-2.05-1.361-3.406-1.361M99.647 63.635l-5.97-6.871h-.193v8.979h.932v-6.788l5.91 6.788h.205v-8.98h-.884zM108.497 64.78c-.306.133-.62.2-.939.2-.415 0-.769-.132-1.06-.394-.29-.263-.435-.566-.435-.908 0-.286.118-.6.354-.942.236-.34.736-.799 1.499-1.37.299.346.571.646.817.9l1.46 1.509c-.655.464-1.22.799-1.696 1.005m-1.32-5.74a.917.917 0 0 1-.12-.453c0-.215.1-.4.302-.554.201-.157.46-.234.775-.234.331 0 .597.075.799.227.202.151.303.33.303.536 0 .182-.077.387-.23.617-.218.327-.545.66-.981 1a7.331 7.331 0 0 1-.848-1.14m4.342 4.784c.31-.258.661-.559 1.053-.902l-.611-.648a30.59 30.59 0 0 1-1.09.938l-.933-.938-1.356-1.43c.621-.527 1.037-.961 1.248-1.3.21-.34.314-.659.314-.956 0-.288-.08-.558-.242-.813a1.669 1.669 0 0 0-.705-.605c-.31-.15-.651-.223-1.027-.223-.593 0-1.09.17-1.489.508-.348.294-.52.664-.52 1.108 0 .258.07.529.211.81.14.283.458.724.95 1.321-.871.686-1.449 1.253-1.731 1.702-.283.447-.424.897-.424 1.349 0 .59.21 1.083.63 1.48.42.399.975.598 1.665.598.52 0 1.015-.093 1.483-.277.469-.183 1.088-.567 1.86-1.153l1.156 1.205h1.247a13.967 13.967 0 0 0-.8-.86 34.415 34.415 0 0 1-.89-.914M117.976 56.74h-.902v8.978h4.354v-.866h-3.452zM122.277 65.743h.897v-8.979h-.897zM124.786 65.743h.897v-4.402h2.402v-.884h-2.402v-2.81h4.05v-.883h-4.947zM130.988 65.743h5.11v-.891h-4.215v-3.523h2.592v-.872h-2.592v-2.81h4.25v-.883h-5.145zM142.822 57.987a3.991 3.991 0 0 1 1.993-.515c.653 0 1.253.13 1.8.39.548.26 1.015.645 1.402 1.154l.714-.533a4.39 4.39 0 0 0-1.662-1.4c-.675-.335-1.434-.5-2.273-.5-1.385 0-2.538.449-3.46 1.349-.922.9-1.384 2.007-1.384 3.318 0 1.118.38 2.119 1.139 3.003.908 1.045 2.149 1.568 3.724 1.568.823 0 1.57-.155 2.239-.466a4.536 4.536 0 0 0 1.677-1.319l-.714-.54c-.844.986-1.895 1.478-3.154 1.478-1.143 0-2.09-.334-2.84-1.003-.75-.667-1.126-1.548-1.126-2.642 0-.727.168-1.38.505-1.96a3.71 3.71 0 0 1 1.42-1.382M157.724 63.057a3.633 3.633 0 0 1-1.386 1.384 3.824 3.824 0 0 1-1.93.509c-1.042 0-1.932-.331-2.668-.993-.737-.663-1.106-1.527-1.106-2.592 0-.718.166-1.372.498-1.96a3.665 3.665 0 0 1 1.389-1.396 3.7 3.7 0 0 1 1.886-.52c.678 0 1.318.174 1.919.52a3.685 3.685 0 0 1 1.398 1.382c.332.578.497 1.221.497 1.93 0 .575-.165 1.153-.497 1.736m-3.354-6.45a4.6 4.6 0 0 0-2.343.625 4.535 4.535 0 0 0-1.707 1.735 4.814 4.814 0 0 0-.624 2.398c0 1.15.458 2.18 1.375 3.09.915.911 2.04 1.367 3.372 1.367 1.312 0 2.424-.422 3.337-1.266.911-.843 1.368-1.922 1.368-3.234 0-1.328-.458-2.446-1.371-3.354-.915-.908-2.05-1.361-3.407-1.361M162.517 61.898l1.55-3.257 1.525 3.257h-3.075zm1.44-5.159l-4.244 8.98h1.005l1.399-2.961h3.875l1.411 2.96h.956l-4.184-8.979h-.218zM171.77 57.987a3.99 3.99 0 0 1 1.992-.515c.654 0 1.254.13 1.8.39a3.79 3.79 0 0 1 1.402 1.154l.715-.533a4.39 4.39 0 0 0-1.662-1.4c-.676-.335-1.434-.5-2.274-.5-1.384 0-2.538.449-3.46 1.349-.922.9-1.383 2.007-1.383 3.318 0 1.118.38 2.119 1.138 3.003.909 1.045 2.15 1.568 3.724 1.568.823 0 1.57-.155 2.24-.466a4.536 4.536 0 0 0 1.677-1.319l-.715-.54c-.843.986-1.895 1.478-3.154 1.478-1.142 0-2.089-.334-2.84-1.003-.75-.667-1.126-1.548-1.126-2.642 0-.727.169-1.38.505-1.96.338-.578.81-1.04 1.421-1.382M184.493 60.53h-4.572v-3.767h-.902v8.98h.902v-4.33h4.572v4.33h.895v-8.98h-.895zM186.989 65.743h.896v-8.979h-.896zM195.668 63.635l-5.97-6.871h-.193v8.979h.932v-6.788l5.91 6.788h.204v-8.98h-.883zM203.619 62.159h2.864a3.101 3.101 0 0 1-1.141 2.021c-.64.522-1.42.781-2.34.781a4.35 4.35 0 0 1-2.099-.518 3.845 3.845 0 0 1-1.505-1.428 3.701 3.701 0 0 1-.544-1.929c0-.532.175-1.093.527-1.683a3.803 3.803 0 0 1 1.48-1.404 4.127 4.127 0 0 1 2.007-.521c.57 0 1.151.127 1.747.382a5.297 5.297 0 0 1 1.643 1.12l.697-.66c-.642-.606-1.298-1.047-1.968-1.323a5.562 5.562 0 0 0-2.144-.416c-.94 0-1.783.209-2.53.625-.746.415-1.333.956-1.759 1.622-.426.666-.64 1.425-.64 2.277 0 1.142.375 2.15 1.121 3.021.97 1.13 2.28 1.695 3.936 1.695 1.372 0 2.465-.408 3.278-1.223.814-.814 1.224-1.917 1.233-3.306h-3.863v.867zM5 62.64h26.552v-1.307H5zM212.807 62.64h26.551v-1.307h-26.55z" fill="#FFF"/><path d="M197.943 21.715c0 11.993-9.723 21.715-21.715 21.715-11.994 0-21.715-9.722-21.715-21.715S164.234 0 176.228 0c11.992 0 21.715 9.722 21.715 21.715" fill="#048689"/><path d="M174.953 39.732a1.418 1.418 0 1 1 2.837 0 1.418 1.418 0 0 1-2.837 0M173.1 14.108c0-2.76.635-4.998 1.418-4.998.783 0 1.418 2.238 1.418 4.998l-.002.135h-2.832l-.002-.135m4.691 17.03a1.418 1.418 0 1 1-2.836 0 1.418 1.418 0 0 1 2.836 0m0-8.595a1.418 1.418 0 1 1-2.836 0 1.418 1.418 0 0 1 2.836 0m-1.236-9.505l2.778.153c.016.297.025.603.025.917l-.002.135h-2.833l-.002-.135c0-.368.012-.725.034-1.07m1.385-3.928c.52 0 .973.99 1.22 2.461l-2.495.352c.23-1.664.714-2.813 1.275-2.813m4.665 33.367l-1.093-24.756h1.106V14.21h-2.673l-.002-.134c0-.29.008-.573.022-.849l6.442.356 10.177.561a21.618 21.618 0 0 0-2.43-4.684l-7.875 1.11-6.12.861c.246-1.376.674-2.304 1.167-2.347a5.282 5.282 0 0 0-4.862-4.186V1.985h-.617v2.912a5.282 5.282 0 0 0-4.866 4.2.423.423 0 0 1 .115-.02c.783 0 1.418 2.238 1.418 4.998l-.002.134h-2.82v3.512h1.542l-1.098 24.837c1.934.564 3.977.872 6.093.872 2.219 0 4.36-.334 6.376-.953" fill="#FFF"/></g></svg>